<?xml version="1.0" standalone="no"?>
<!DOCTYPE svg PUBLIC "-//W3C//DTD SVG 20010904//EN"
 "http://www.w3.org/TR/2001/REC-SVG-20010904/DTD/svg10.dtd">
<svg version="1.0" xmlns="http://www.w3.org/2000/svg"
 width="2544.000000pt" height="1599.000000pt" viewBox="0 0 2544.000000 1599.000000"
 preserveAspectRatio="xMidYMid meet">
<metadata>
Created by potrace 1.16, written by Peter Selinger 2001-2019
</metadata>
<g transform="translate(0.000000,1599.000000) scale(0.100000,-0.100000)"
fill="#000000" stroke="none">
<path d="M7205 15984 c-204 -16 -416 -38 -565 -60 -1685 -241 -3216 -1095
-4314 -2404 -116 -138 -294 -369 -366 -474 -18 -27 -42 -58 -52 -68 -24 -24
-329 -517 -336 -543 -3 -11 -35 -74 -70 -140 -364 -681 -627 -1506 -732 -2300
-70 -525 -78 -1125 -24 -1640 114 -1089 478 -2127 1061 -3028 34 -54 63 -101
63 -105 0 -4 -421 -324 -935 -711 -514 -387 -935 -705 -935 -707 0 -5 1568
-2035 1590 -2057 16 -18 48 12 781 734 1757 1731 4420 4340 4428 4337 4 -2
456 -410 1004 -908 549 -498 1001 -906 1006 -908 5 -2 1713 2079 3797 4623
2083 2544 3791 4625 3795 4625 4 0 183 -162 398 -360 214 -198 393 -360 396
-360 3 0 5 412 5 915 0 725 -3 915 -12 915 -25 0 -1683 -262 -1688 -267 -3 -2
9 -16 25 -30 125 -108 615 -568 612 -576 -2 -6 -527 -517 -1168 -1137 -754
-731 -1167 -1124 -1172 -1116 -4 6 -42 74 -84 151 -720 1329 -1909 2423 -3288
3025 -692 302 -1349 473 -2145 557 -138 14 -943 27 -1075 17z m115 -1039 l0
-395 315 0 315 0 0 395 0 395 43 0 c68 0 347 -28 507 -51 698 -99 1401 -323
2011 -641 l136 -71 -204 -330 c-111 -181 -203 -334 -203 -340 1 -10 503 -326
526 -331 4 0 99 149 212 331 183 298 206 331 223 322 11 -5 90 -63 177 -128
774 -579 1410 -1336 1840 -2188 l87 -173 -60 -59 c-33 -32 -888 -859 -1900
-1837 -1012 -978 -1883 -1821 -1936 -1874 -53 -52 -208 -204 -346 -337 l-250
-242 -354 416 c-195 230 -374 442 -399 473 -24 30 -110 131 -190 224 -80 93
-228 267 -328 385 -101 119 -192 224 -202 235 -19 20 -21 18 -1100 -760 -1090
-786 -3803 -2739 -3817 -2747 -33 -21 -362 554 -518 903 -219 492 -372 998
-460 1523 -34 202 -75 563 -75 657 l0 50 390 0 390 0 0 315 0 315 -393 0 -393
0 3 38 c47 739 189 1375 447 2010 124 305 297 657 320 649 6 -3 154 -93 330
-201 175 -108 321 -196 325 -196 7 1 334 531 329 535 -2 2 -147 92 -323 200
-176 109 -324 201 -329 206 -15 13 217 323 410 549 131 152 407 434 571 580
142 128 365 308 508 412 186 134 489 328 511 328 6 0 91 -155 189 -345 97
-190 181 -345 185 -345 16 0 544 278 548 288 2 6 -76 164 -173 352 -97 187
-174 344 -171 349 14 22 420 183 656 259 487 158 1155 283 1553 291 l67 1 0
-395z"/>
<path d="M12037 8803 c-9 -8 -9 -625 -1 -647 5 -14 51 -16 410 -16 l404 0 2
-1932 3 -1933 415 0 415 0 3 1932 2 1933 408 2 407 3 0 330 0 330 -1231 3
c-677 1 -1234 -1 -1237 -5z"/>
<path d="M18029 6542 c-240 -1241 -436 -2258 -435 -2259 1 -1 188 -4 416 -5
l414 -3 63 360 c34 198 62 363 63 368 0 4 166 7 370 7 l370 0 5 -22 c4 -22
115 -706 115 -714 0 -2 182 -4 405 -4 374 0 405 1 405 17 0 15 -782 4315 -811
4461 l-10 52 -467 0 -467 0 -436 -2258z m1041 118 c67 -487 124 -897 127 -912
l6 -28 -273 0 -273 0 6 33 c2 17 65 436 138 930 74 493 137 889 141 880 4 -10
62 -416 128 -903z"/>
<path d="M20460 6535 l0 -2265 713 0 c399 0 763 5 827 10 139 13 255 39 357
81 104 44 269 155 326 220 96 108 167 297 204 543 14 98 17 254 20 1311 4
1220 0 1420 -33 1610 -58 335 -277 596 -586 700 -158 52 -207 55 -1050 55
l-778 0 0 -2265z m1259 1585 c57 -5 128 -16 158 -25 71 -21 132 -80 164 -160
l24 -60 0 -1335 0 -1335 -26 -56 c-37 -79 -88 -131 -161 -165 l-63 -29 -262
-3 -263 -3 0 1590 0 1591 163 0 c89 -1 209 -5 266 -10z"/>
<path d="M14732 6533 l3 -2258 413 -3 412 -2 0 990 0 990 229 0 c309 0 390
-15 476 -92 45 -39 52 -53 72 -136 14 -56 17 -176 23 -752 6 -676 6 -686 29
-770 13 -47 34 -110 48 -140 43 -99 -4 -90 500 -90 243 0 443 4 443 9 0 4 -16
25 -35 46 -57 60 -94 146 -122 285 -13 60 -17 204 -22 735 l-7 660 -27 88
c-33 108 -51 144 -112 224 -75 101 -201 185 -353 236 l-70 23 96 29 c204 61
291 124 357 258 68 137 77 211 82 654 7 580 -11 776 -87 930 -67 135 -183 235
-337 288 -155 54 -174 55 -1129 55 l-884 0 2 -2257z m1423 1573 c68 -21 127
-73 154 -136 34 -78 43 -206 39 -536 l-3 -300 -30 -60 c-22 -43 -43 -68 -79
-91 -88 -60 -123 -66 -413 -71 l-263 -4 0 612 0 612 273 -5 c210 -3 283 -8
322 -21z"/>
<path d="M23162 6528 l3 -2253 1100 0 1100 0 3 353 2 352 -690 0 -690 0 0 680
0 680 620 0 620 0 0 350 0 350 -620 0 -620 0 0 520 0 520 660 0 660 0 -2 348
-3 347 -1073 3 -1072 2 2 -2252z"/>
<path d="M17402 3393 l3 -268 322 -3 323 -2 2 -1558 3 -1557 335 0 335 0 3
1557 2 1558 328 2 327 3 3 268 2 267 -995 0 -995 0 2 -267z"/>
<path d="M19595 3648 c-3 -7 -4 -830 -3 -1828 l3 -1815 335 0 335 0 0 1825 0
1825 -333 3 c-261 2 -334 0 -337 -10z"/>
<path d="M20455 3638 c-3 -7 -4 -827 -3 -1823 l3 -1810 330 0 330 0 -2 1440
c-1 792 0 1433 2 1425 3 -8 120 -634 260 -1390 140 -756 260 -1399 266 -1428
l10 -52 304 0 303 0 5 23 c3 12 119 666 259 1452 l253 1430 3 -1453 2 -1452
328 2 327 3 3 1823 2 1822 -534 0 -534 0 -5 -22 c-3 -13 -97 -579 -209 -1257
-111 -679 -204 -1228 -205 -1220 -48 284 -415 2452 -419 2472 l-6 27 -534 0
c-419 0 -536 -3 -539 -12z"/>
<path d="M23667 3633 c-4 -3 -7 -822 -7 -1820 l0 -1813 888 2 887 3 0 285 0
285 -552 3 -553 2 0 545 0 545 500 0 500 0 0 280 0 280 -500 0 -500 0 0 420 0
420 528 2 527 3 0 280 0 280 -856 3 c-470 1 -859 -1 -862 -5z"/>
</g>
</svg>
